<?xml version="1.0" encoding="utf-8"?>
<!-- Generator: Adobe Illustrator 21.1.0, SVG Export Plug-In . SVG Version: 6.00 Build 0)  -->
<svg version="1.1" id="Layer_1" xmlns="http://www.w3.org/2000/svg" xmlns:xlink="http://www.w3.org/1999/xlink" x="0px" y="0px"
	 viewBox="0 0 24 24" style="enable-background:new 0 0 24 24;" xml:space="preserve">
<path d="M20.4,2.7c-2.1-2.1-5.6-2.1-7.8,0l-9.7,9.7l1.3,1.3L13.9,4c0.7-0.7,1.6-1.1,2.6-1.1s1.9,0.4,2.6,1.1
	c0.7,0.7,1.1,1.6,1.1,2.6s-0.4,1.9-1.1,2.6L7.8,20.4c-0.9,0.9-2.3,0.9-3.2,0s-0.9-2.3,0-3.2L15.2,6.6l0,0c0.4-0.4,0.9-0.4,1.3,0
	c0.2,0.2,0.3,0.4,0.3,0.6s-0.1,0.5-0.3,0.6L5.9,18.5l1.3,1.3L17.8,9.2l0,0c0.5-0.5,0.8-1.2,0.8-1.9s-0.3-1.4-0.8-1.9
	c-1.1-1.1-2.8-1.1-3.9,0L3.3,15.9c-1.6,1.6-1.6,4.2,0,5.8c0.8,0.8,1.9,1.2,2.9,1.2s2.1-0.4,2.9-1.2l11.3-11.3
	C22.5,8.3,22.5,4.8,20.4,2.7z"/>
</svg>
