<?xml version="1.0" encoding="utf-8"?>
<!-- Generator: Adobe Illustrator 21.1.0, SVG Export Plug-In . SVG Version: 6.00 Build 0)  -->
<svg version="1.1" id="Layer_1" xmlns="http://www.w3.org/2000/svg" xmlns:xlink="http://www.w3.org/1999/xlink" x="0px" y="0px"
	 viewBox="0 0 24 24" style="enable-background:new 0 0 24 24;" xml:space="preserve">
<path d="M23,4c-0.3-0.5-0.7-1.1-1.3-1.6c-0.5-0.5-1.1-1-1.6-1.3c-1.2-0.6-1.8-0.2-2.1,0L3.2,15.9c0,0-0.1,0.2-0.2,0.6l-2.3,6.8
	L7.6,21c0.4-0.1,0.7-0.3,0.7-0.3l0,0l0,0L20.4,8.6l0,0l0,0L23,6l0,0l0,0C23.2,5.8,23.6,5.1,23,4z M19.3,6.9C19,6.8,18.6,6.5,18.1,6
	s-0.8-0.9-0.9-1.2l1.1-1.1c0.3,0.5,0.7,0.9,1,1.2c0.4,0.4,0.8,0.7,1.2,1L19.3,6.9z M7.2,19c-0.3-0.1-0.7-0.4-1.2-0.9
	s-0.8-0.9-0.9-1.2L15.7,6.2c0.3,0.5,0.7,0.9,1,1.2c0.4,0.4,0.8,0.7,1.2,1L7.2,19z M4.2,19.1c0.1,0.2,0.3,0.3,0.4,0.4
	s0.2,0.2,0.4,0.4l-1.1,0.4L4.2,19.1z M19,7.2L19,7.2L19,7.2L19,7.2z"/>
</svg>
