<?xml version="1.0" encoding="utf-8"?>
<!-- Generator: Adobe Illustrator 21.1.0, SVG Export Plug-In . SVG Version: 6.00 Build 0)  -->
<svg version="1.1" id="Layer_1" xmlns="http://www.w3.org/2000/svg" xmlns:xlink="http://www.w3.org/1999/xlink" x="0px" y="0px"
	 viewBox="0 0 24 24" style="enable-background:new 0 0 24 24;" xml:space="preserve">
<path d="M23,4.5c0-0.9,0-1.8-11-1.8S1,3.6,1,4.5c0,0.3,0,0.6,0.4,0.8l7.1,8.9v5.3c0,1.6,2.7,1.8,3.5,1.8s3.5-0.1,3.5-1.8v-5.3
	l7.1-8.9C23,5.1,23,4.8,23,4.5z M13.5,13.5V19c-0.3,0.1-0.8,0.2-1.5,0.2s-1.2-0.1-1.5-0.2v-5.5L4.5,6c1.6,0.1,4,0.2,7.5,0.2
	s5.9-0.1,7.5-0.2L13.5,13.5z"/>
</svg>
