<?xml version="1.0" encoding="utf-8"?>
<!-- Generator: Adobe Illustrator 21.1.0, SVG Export Plug-In . SVG Version: 6.00 Build 0)  -->
<svg version="1.1" id="Layer_1" xmlns="http://www.w3.org/2000/svg" xmlns:xlink="http://www.w3.org/1999/xlink" x="0px" y="0px"
	 viewBox="0 0 24 24" style="enable-background:new 0 0 24 24;" xml:space="preserve">
<path d="M12,23c-2.8,0-5.6-1.1-7.8-3.2c-4.3-4.3-4.3-11.3,0-15.6s11.3-4.3,15.6,0s4.3,11.3,0,15.6C17.6,21.9,14.8,23,12,23z M12,3
	C9.7,3,7.4,3.9,5.6,5.6c-3.5,3.5-3.5,9.2,0,12.7s9.2,3.5,12.7,0s3.5-9.2,0-12.7C16.6,3.9,14.3,3,12,3z M16.9,8.5l-1.4-1.4L12,10.6
	L8.5,7.1L7.1,8.5l3.5,3.5l-3.5,3.5l1.4,1.4l3.5-3.5l3.5,3.5l1.4-1.4L13.4,12L16.9,8.5z"/>
</svg>
