<?xml version="1.0" encoding="utf-8"?>
<!-- Generator: Adobe Illustrator 21.1.0, SVG Export Plug-In . SVG Version: 6.00 Build 0)  -->
<svg version="1.1" id="Layer_1" xmlns="http://www.w3.org/2000/svg" xmlns:xlink="http://www.w3.org/1999/xlink" x="0px" y="0px"
	 viewBox="0 0 24 24" style="enable-background:new 0 0 24 24;" xml:space="preserve">
<path d="M23,6.6h-3.8V2.3H4.7v4.3H1v12.7h3.8v2.5h14.5v-2.5H23L23,6.6L23,6.6z M6.7,4.3h10.5v2.3H6.7V4.3z M6.7,19.8v-5.2h10.5v5.2
	H6.7z M21,17.2h-1.8v-2.7H20v-2H4v2h0.8v2.7H3V8.6h18V17.2z M7.5,15.7h9v1h-9C7.5,16.7,7.5,15.7,7.5,15.7z M7.5,17.7h9v1h-9
	C7.5,18.7,7.5,17.7,7.5,17.7z M18.1,9.6c0.6,0,1,0.4,1,1s-0.4,1-1,1s-1-0.4-1-1C17.1,10.1,17.6,9.6,18.1,9.6z"/>
</svg>
