<?xml version="1.0" encoding="utf-8"?>
<!-- Generator: Adobe Illustrator 21.1.0, SVG Export Plug-In . SVG Version: 6.00 Build 0)  -->
<svg version="1.1" id="Layer_1" xmlns="http://www.w3.org/2000/svg" xmlns:xlink="http://www.w3.org/1999/xlink" x="0px" y="0px"
	 viewBox="0 0 24 24" style="enable-background:new 0 0 24 24;" xml:space="preserve">
<g>
	<path d="M23,13.5L20.5,1h-17L1,13.5l0,0V23h22V13.5L23,13.5z M5.2,3h13.7L21,13.5H3.1L5.2,3z M21,21H3v-5.5h18V21z"/>
	<polygon points="18,16.7 16,16.7 16,17.7 8,17.7 8,16.7 6,16.7 6,19.7 18,19.7 	"/>
	<polygon points="14.7,10.4 8,10.4 5.6,10.4 5.2,12.4 8,12.4 15.4,12.4 18.8,12.4 18.4,10.4 	"/>
	<polygon points="15.4,9.2 18.2,9.2 17.8,7.2 14.2,7.2 8.7,7.2 6.2,7.2 5.8,9.2 7.7,9.2 	"/>
	<polygon points="13.8,6.1 17.5,6.1 17.1,4.1 14.9,4.1 8.2,4.1 6.9,4.1 6.5,6.1 6.9,6.1 	"/>
</g>
</svg>
