<?xml version="1.0" encoding="utf-8"?>
<!-- Generator: Adobe Illustrator 21.1.0, SVG Export Plug-In . SVG Version: 6.00 Build 0)  -->
<svg version="1.1" id="Layer_1" xmlns="http://www.w3.org/2000/svg" xmlns:xlink="http://www.w3.org/1999/xlink" x="0px" y="0px"
	 viewBox="0 0 24 24" style="enable-background:new 0 0 24 24;" xml:space="preserve">
<path d="M23,10.8l-4.3,4.3l-4.4-4.3l1.3-1.3l2.2,2.2v-2c0-3.2-2.6-5.8-5.8-5.8c-2,0-3.9,1-4.9,2.8L5.5,5.8C6.9,3.5,9.3,2.2,12,2.2
	c4.2,0,7.6,3.4,7.6,7.6v1.9l2.2-2.2L23,10.8z M12,20c-3.2,0-5.8-2.6-5.8-5.8v-1.9l2.2,2.2l1.3-1.3L5.3,8.9L1,13.2l1.3,1.3l2.2-2.2
	v1.9c0,4.2,3.4,7.6,7.6,7.6c2.7,0,5.1-1.4,6.5-3.6l-1.5-0.9C15.8,18.9,14,20,12,20z"/>
</svg>
