<?xml version="1.0" encoding="utf-8"?>
<!-- Generator: Adobe Illustrator 21.1.0, SVG Export Plug-In . SVG Version: 6.00 Build 0)  -->
<svg version="1.1" id="Layer_1" xmlns="http://www.w3.org/2000/svg" xmlns:xlink="http://www.w3.org/1999/xlink" x="0px" y="0px"
	 viewBox="0 0 24 24" style="enable-background:new 0 0 24 24;" xml:space="preserve">
<path d="M14.6,23.1H9.4l-0.6-2.3c-0.2-0.1-0.5-0.2-0.7-0.3l-2,1.2L2.4,18l1.2-2c-0.1-0.2-0.2-0.5-0.3-0.7L1,14.6V9.3l2.3-0.6
	C3.4,8.5,3.5,8.2,3.6,8L2.4,6l3.7-3.7l2,1.2c0.2-0.1,0.5-0.2,0.7-0.3l0.6-2.3h5.2l0.6,2.3c0.2,0.1,0.5,0.2,0.7,0.3l2-1.2L21.6,6
	l-1.2,2c0.1,0.2,0.2,0.5,0.3,0.7L23,9.3v5.2l-2.3,0.6c-0.1,0.2-0.2,0.5-0.3,0.7l1.2,2l-3.7,3.7l-2-1.2c-0.2,0.1-0.5,0.2-0.7,0.3
	L14.6,23.1z M10.9,21.1H13l0.5-1.9l0.6-0.2c0.5-0.1,1-0.3,1.4-0.6l0.5-0.3l1.7,1l1.5-1.5l-1-1.7l0.3-0.5c0.2-0.4,0.4-0.9,0.6-1.4
	l0.2-0.6l1.9-0.5v-1.9l-1.9-0.5l-0.4-0.5c-0.1-0.5-0.3-1-0.6-1.4L18,8.1l1-1.7l-1.4-1.4l-1.6,1l-0.5-0.3c-0.4-0.2-0.9-0.4-1.4-0.6
	l-0.6-0.1L13,3h-2.1l-0.4,1.9L9.9,5.1C9.4,5.2,9,5.4,8.5,5.6L8,5.9l-1.6-1L4.9,6.4l1,1.7L5.6,8.6C5.4,8.9,5.2,9.4,5.1,9.9l-0.2,0.5
	L3,10.9v2.1l1.9,0.5l0.2,0.5c0.1,0.5,0.3,1,0.6,1.4l0.2,0.5l-1,1.7l1.5,1.5l1.7-1l0.5,0.3C9,18.7,9.4,18.9,9.9,19l0.6,0.2L10.9,21.1
	z M12,16.8c-2.6,0-4.8-2.1-4.8-4.8S9.4,7.2,12,7.2s4.8,2.1,4.8,4.8S14.6,16.8,12,16.8z M12,9.2c-1.5,0-2.8,1.2-2.8,2.8
	s1.2,2.8,2.8,2.8s2.8-1.2,2.8-2.8S13.5,9.2,12,9.2z"/>
</svg>
