<?xml version="1.0" encoding="utf-8"?>
<!-- Generator: Adobe Illustrator 21.1.0, SVG Export Plug-In . SVG Version: 6.00 Build 0)  -->
<svg version="1.1" id="Layer_1" xmlns="http://www.w3.org/2000/svg" xmlns:xlink="http://www.w3.org/1999/xlink" x="0px" y="0px"
	 viewBox="0 0 24 24" style="enable-background:new 0 0 24 24;" xml:space="preserve">
<path d="M22.2,2.6h-6.9V1H8.7v1.6H1.8v2.9h0.9v16.3L3.4,22c0.2,0,3.9,1,8.5,1s8.4-1,8.5-1l0.7-0.2V5.5H22V2.6H22.2z M19.3,20.2
	C18,20.5,15.2,21,12,21s-6-0.5-7.3-0.8V5.5h14.5v14.7H19.3z M13,18.7h-2V7.2h2V18.7z M8.9,18.3h-2v-11h2V18.3z M17.1,18.3h-2v-11h2
	V18.3z"/>
</svg>
