<svg xmlns="http://www.w3.org/2000/svg" viewBox="0 0 22.125 24">
  <defs></defs>
  <path id="Adicionar_paciente" data-name="Adicionar paciente" class="cls-1" d="M10.125,10.875A5.438,5.438,0,1,0,4.688,5.438,5.441,5.441,0,0,0,10.125,10.875Zm0-9.375A3.938,3.938,0,1,1,6.188,5.438,3.937,3.937,0,0,1,10.125,1.5Zm12,16.125A6.37,6.37,0,0,0,15.75,11.25a5.94,5.94,0,0,0-2.587.563,8.39,8.39,0,0,0-3.038-.562C4.537,11.25,0,16.65,0,23.25V24H20.25v-.75a10.538,10.538,0,0,0-.038-1.087A6.373,6.373,0,0,0,22.125,17.625Zm-1.5,0A4.875,4.875,0,1,1,15.75,12.75,4.865,4.865,0,0,1,20.625,17.625ZM1.538,22.5c.3-5.437,4.05-9.75,8.587-9.75a5.825,5.825,0,0,1,1.387.15,6.3,6.3,0,0,0-2.137,4.725A6.374,6.374,0,0,0,11.663,22.5ZM15,18.375H12.938v-1.5H15V14.813h1.5v2.063h2.063v1.5H16.5v2.063H15Z"/>
</svg>
