<svg xmlns="http://www.w3.org/2000/svg" viewBox="0 0 22.62 24">
  <defs></defs>
  <path id="Adicionar_pedido" data-name="Adicionar pedido" class="cls-1" d="M22.62,17.482A6.546,6.546,0,0,0,16.869,11V3.3H12.077V1.917H10.351a1.917,1.917,0,1,0-3.834,0H4.792V3.3H0V24H16.869v-.038A6.546,6.546,0,0,0,22.62,17.482ZM8.435,1.534a.362.362,0,0,1,.383.383.348.348,0,0,1-.115.268l-.268.307-.268-.307a.348.348,0,0,1-.115-.268A.362.362,0,0,1,8.435,1.534ZM6.326,3.45h4.217v1.38H6.326ZM1.534,22.466V4.831H4.792V6.364h7.284V4.831h3.259V11a8.516,8.516,0,0,0-1.419.345H2.684v.767h9.738a9.017,9.017,0,0,0-1.265,1.15H2.684v.767h7.9a5.375,5.375,0,0,0-.575,1.15H2.684v.767H9.776a5.919,5.919,0,0,0-.153,1.15H2.684v.767H9.623c.038.383.077.767.153,1.15H2.684v.767h7.323a6.664,6.664,0,0,0,1.917,2.684Zm14.569,0a4.984,4.984,0,1,1,4.984-4.984A4.974,4.974,0,0,1,16.1,22.466Zm.767-5.751h2.109v1.534H16.869v2.109H15.335V18.249H13.227V16.716h2.109V14.607h1.534ZM8.435,8.281H2.684V7.514H8.435ZM14.262,10.2H2.684V9.431H14.262Z"/>
</svg>
