<?xml version="1.0" encoding="utf-8"?>
<!-- Generator: Adobe Illustrator 21.1.0, SVG Export Plug-In . SVG Version: 6.00 Build 0)  -->
<svg version="1.1" id="Layer_1" xmlns="http://www.w3.org/2000/svg" xmlns:xlink="http://www.w3.org/1999/xlink" x="0px" y="0px"
	 viewBox="0 0 24 24" style="enable-background:new 0 0 24 24;" xml:space="preserve">
<path d="M12,15.8c-1.7,0-3.1-1.4-3.1-3.1s1.4-3.1,3.1-3.1s3.1,1.4,3.1,3.1S13.7,15.8,12,15.8z M12,11.4c-0.7,0-1.3,0.6-1.3,1.3
	c0,0.7,0.6,1.3,1.3,1.3s1.3-0.6,1.3-1.3C13.3,12,12.7,11.4,12,11.4z M23,11.1l-1.2-1.3l-1,1c-0.1-0.1-0.1-0.1-0.2-0.2
	c-0.1-0.1-0.3-0.3-0.5-0.4l0.7-1.1l-1.5-1l-0.7,1.1c-0.2-0.1-0.5-0.3-0.8-0.4l0.5-1.2l-1.6-0.7l-0.5,1.2c-0.3-0.1-0.5-0.2-0.8-0.2
	l0.3-1.3L14,6.2l-0.3,1.3c-0.3,0-0.5-0.1-0.8-0.1V6.1h-1.8v1.3c-0.3,0-0.5,0-0.8,0.1L10,6.2L8.3,6.6l0.3,1.3C8.3,7.9,8,8,7.8,8.1
	L7.3,6.9L5.6,7.5l0.5,1.2C5.9,8.9,5.6,9,5.4,9.2L4.6,8.1l-1.5,1l0.7,1.1c-0.2,0.1-0.3,0.3-0.5,0.4c-0.1,0.1-0.1,0.1-0.2,0.2l-1-1
	L1,11.1l1.4,1.3c0,0.1,0,0.2,0,0.2c0,0.7,0.4,1.4,1.1,2.1c1.6,1.6,4.8,3.2,8.6,3.2s7-1.6,8.6-3.2c0.7-0.7,1.1-1.4,1.1-2.1
	c0-0.1,0-0.2,0-0.2L23,11.1z M12,16.2c-4.5,0-7.9-2.7-7.9-3.5c0-0.8,3.4-3.5,7.9-3.5s7.9,2.7,7.9,3.5C19.9,13.5,16.5,16.2,12,16.2z"
	/>
</svg>
